<svg xmlns="http://www.w3.org/2000/svg" viewBox="0 0 649.67 603.93"><defs><style>.cls-1{fill:#3e3f5d;fill-rule:evenodd;}</style></defs><title> 1120502144</title><g id="Слой_2" data-name="Слой 2"><g id="Слой_1-2" data-name="Слой 1"><g id="_1120502144" data-name=" 1120502144"><path class="cls-1" d="M321.51,370l4.64-39.59c0-5.37,2.67-21.55,3.45-27.46.54-4.12.45-7.52,1-11.73l4.23-34.61c.91-7.78,2.37-15.38,3.15-23l5.18-46.39,74.43-13.42c1.45-.29,2.42-.55,4.22-.87s3.27-.23,5.22-.51c4.38-.63,13.55-3.31,18-3.65,8.06-.63,37.15-7.41,47.73-8.29-.49,1.85-2.8,4-4.9,6.57l-5.38,6.71c-1.8,2.2-3.16,4.38-5,6.46l-5.64,6.46c-1.77,2.22-3.32,4.13-5.1,6.36-7.26,9.12-14.33,16.81-21.44,26.3-3.36,4.48-4,4.27-5.75,6.35L386,291.17c-1.89,2.43-3.26,3.91-5.09,6.38l-8,9.85c-7.3,7.8-13.37,17.25-20.79,25l-19.8,24.14C328.81,361.09,325.25,365.64,321.51,370Zm43.29-211.4,4.8-4.74c1-.83,1.59-1.12,2.57-1.89,1.26-1,1.6-1.46,2.72-2.37l62.86-52.39a21.52,21.52,0,0,1,2.53-1.91c2.44-1.82,5.92-6,8.55-6.74,2.72,1.82,7.46,7.4,11.83,11.08,1.46,1.23.82.85,1.81,2,1.49,1.76,1.07,1,2.35,2.11,4.1,3.75,12.21,12.55,16.2,15.63,1.43,1.1,15.76,15,15.77,15.22,0,1.77-3,.87-5.69,1.32-8.2,1.39-10.19,2.38-20.38,3.82-7.37,1.05-11.36,3-19.34,3.58l-59,11c-1.83.35-4.49.38-6.84.8s-4.9,1-6.84,1.43C374,157.61,370.46,158.55,364.8,158.55ZM171.91,53.49l18.47,15.28c3,2.33,5.84,5.34,8.81,7.74l23,19c1.66,1.29,3.2,2.53,5,4l41.7,34.7c2,1.47,2.68,2.25,4.55,3.73L285,147.37c1.71,1.9.28.64,2.37,2.08l14,11.45c4.24,3.42,16,14,18.9,15.48,0,2.78-.51,3.13-.64,5.73-.41,8.59-.81,9.77-2,18.36-.49,3.46-1.36,8.22-1.71,11.66l-9.82,84.41c-.43,3.24-1.44,8.24-1.69,11.68-.18,2.42.07,4.26-.29,6.72l-6.75,54.38c-1.39-1.6-1.08-2.32-1.93-4.45l-14-34.4c-1.37-3-2.22-6.44-3.65-9.72l-15.89-39.51c-.92-2-.89-3.15-1.72-5.28l-15.66-39.1c-.75-1.54-1.39-3-2.11-4.89l-23.65-59.12c-.73-1.89-.87-3.09-1.62-4.75l-17.83-44.57c-1.23-3.86-2.87-6.25-3.95-10L173.59,58.81C172.64,56.67,172.62,55.06,171.91,53.49Zm17.83-17.2c2.7.06,4.36.84,7,1.29,2.4.41,5.72.68,7.83,1.08,4.95,1,9,2.1,14.18,3l36.18,6.47c2.77.59,4.66,1.17,7.46,1.51a47.93,47.93,0,0,1,6.1.79l36.19,7.15c2.79.5,4.85.38,7.31,1,9.49,2.3,14.12,2.51,22.09,4,1.95.36,4.77,1.22,6.71,1.57l65.55,12.12c4.19.93,7.34.88,15.12,2.7l-1.55,1.63c-.09.09-.24.21-.34.29l-3.13,2.6-.31.33-19.75,16.54c-7.5,6.5-19.63,15.33-25.54,20.93l-39.77,33.45c-2.11-3.15-15.68-13.46-19.63-16.66L295.85,125c-1.66-1.33-2.65-2.24-4.17-3.47l-4.52-3.75c-.31-.29-.32-.33-1-.91-8.32-7.1-19.8-15.67-26.79-22.24l-25.44-21c-1.72-1.35-2.76-2.33-4.52-3.75L202.91,48C200.36,45.9,191.07,38.29,189.74,36.29Zm-1.28-.63.2.19S188.4,35.72,188.46,35.66ZM297.32,436.17c3.38-.9,15.93-18.63,19.26-22.12,4.15-4.37,7.64-9.39,11.38-14.09,1.3-1.63,2.36-3.11,3.73-4.55l7.5-9.05c1.55-1.76,2.22-2.64,3.69-4.59,7.93-10.55,17.33-20.18,25.31-30.71.11-.15.42-.6.54-.74L404.33,307c.06-.06.72-.66,1-.93l48.83-60c.43-.46.77-.74,1-.94l38.82-47.13c2.51-3.15,4.87-5.86,7.36-9.18a113.49,113.49,0,0,1,7.84-9.36l14.55-17.91A136.32,136.32,0,0,0,539.22,142c-3.09-4.62-8.87-8.67-12.9-12.56-1.66-1.59-2.82-2.84-4.45-4.47L503.79,108c-1.31-1.33-.4-.78-1.72-2.1s-1-.55-2.4-2.06l-5.41-5.41c-.57-.53-.43-.36-1-.9l-37.87-36c-2.12-1.91-3.62-1.73-6.6-2.32l-14.58-2.6c-7.3-1.79-14.74-2.38-22.14-4l-29.45-5.57a52.8,52.8,0,0,1-7.68-1.23c-5.41-1.08-9.08-2-15.12-2.7-7.26-.87-14.4-3-21.49-4L324,36.34c-2.6-.54-5.15-.48-7.87-1.05-5.13-1.06-9.36-2.28-14.71-3.1-10.12-1.57-39.05-7.73-44.22-8l-29.65-5.37c-2.38-.53-4.78-1.07-6.78-1.48-2.91-.6-4.85-.51-7.87-1.05-4.72-.84-9.45-2-14.19-3-2.33-.47-5.45-.68-7.78-1.15L124.17,0l13.7,34.05c2.46,5.46,4.1,11.49,6.65,16.91l79.8,201c3.13,7.36,8.64,20,10.89,27.32l7,17.31c.05.15.15.54.19.69,1.68,5.4,4,9.92,6.11,15.2l21.63,54.77c.5,1.22.76,2,1.28,3.18l8.22,20.43a22.29,22.29,0,0,1,1.52,3.57l3.8,10.21C286.87,411,295.77,429.51,297.32,436.17Z"/><path class="cls-1" d="M167.71,593.55h16.86V456.93h73.48c5.35,0,12.42,3.52,16.67,7.11l.23.2a17,17,0,0,1,2,1.93c2.22,2.38.73,0,3.1,3.81.47.75,1,1.44,1.36,2.1,1,2,2.84,5.61,3.06,7.75.68,6.61,2,10.38-1.49,18.86-2.95,7.12-9.74,14-16.67,16.18-3.14,1-5.39,2.16-9.52,2.16H198v76.52h16.86V534.32h36.74c1.57,0,1,1,2.47,3.15a19.33,19.33,0,0,1,1.85,3.77c1.32,2.85,5.72,10.18,7.78,14.7.63,1.38,1.51,2.26,2.14,3.48a36.8,36.8,0,0,0,1.94,4.11l8,14.88c.7,1.38,1,2.32,1.85,3.77a32.38,32.38,0,0,1,1.92,3.71c.94,2,3.51,5.83,4,7.66h19.89l-8-15.37c-.94-1.52-1.13-2.22-1.91-3.72l-6.31-11.84a9.61,9.61,0,0,1-1-1.57L271,531.73c3.18-.74,11.63-5.51,14.43-8.05l3.1-2.95c.56-.65.18-.41,1-1.16s.55-.25,1.41-1.19c3.29-3.55,7-10.19,8.75-15,2.5-7,2.86-8.77,2.86-16.6a46.24,46.24,0,0,0-3.81-19.1c-1.17-2.9-3-5.32-4.6-7.94L289.5,454a25.29,25.29,0,0,0-2.92-2.69c-7.3-5.65-9.63-7.42-18.54-10a37.87,37.87,0,0,0-10-1.68H167.71Z"/><path class="cls-1" d="M514.81,430.12V593.55H532.1V473.79c1.14,1.32,2.39,2.5,3.45,3.89,1.22,1.6,2.29,2.4,3.64,4.14l33,36.56c1.25,1.57,2.34,2.31,3.7,4.09L590.55,539c1.4,1.39,2.12,2.61,3.53,3.81,2.83,2.39,6.61,7.28,9.23,10.23,3.27,3.68,12,13.72,14.86,16.27,1,.86.88,1.23,1.71,2.18l.21.22c6.89,7.14,13.29,15,20,22.36,1,1.1,1,.56,2,1.84,1.35,1.6,2.51,2.68,3.63,4.15a17.34,17.34,0,0,0,3.9,3.89V439.64c-20.34,0-17.31-1.58-17.29,6.05V558.53c-1.82-1.21-10.67-11.86-13.46-14.64-.06-.07-.16-.15-.22-.21l-8.24-9a25.24,25.24,0,0,0-1.74-2.15l-82.38-91.41c-1.32-1.91-.38-.63-1.89-2l-9.21-10.24C514.94,429.35,514.81,429.29,514.81,430.12Z"/><path class="cls-1" d="M348,517c0-7.29,1.55-17.57,4.81-23.73.82-1.54,1.27-3.43,2.11-4.8.61-1,.75-.85,1.43-2,4.15-7.17,5.26-7.86,11.21-13.87,2.5-2.52,2.41-2,4.16-3.61l.66-.64c.77-.69,0-.13,1-.76s1.26-.76,2.12-1.33c6.46-4.26,19.26-9.33,26.55-9.33,9.79,0,12.76-.71,22.36,2.27,3.75,1.17,8.42,2.59,11.66,4.77,2,1.34,7.74,4.17,10.12,6.74L456,481.2a62.1,62.1,0,0,1,10.4,23.32c1.41,6.42.9,10.64.9,17.7,0,3.74-2.61,13.31-4.18,16.57-.87,1.81-1.39,3.43-2.33,5-4,6.78-3.41,6.49-8.72,12.46-3.85,4.32-3.28,3.34-7.34,6.92-12.88,11.36-33.14,15.24-50.29,11.58a65.86,65.86,0,0,1-15.77-6.27,59.37,59.37,0,0,1-12.84-9.64,48.37,48.37,0,0,1-6.68-8,21.29,21.29,0,0,0-1.52-1.93,11.65,11.65,0,0,1-1.42-2.47c-4.05-7.94-3.82-6.79-6.54-15.94A72.7,72.7,0,0,1,348,517ZM331.1,515.3c0,8.85.84,18.34,3.83,26.44l2.79,6.71c4.12,8.18,7.55,14.29,14.14,20.88l2.38,2.38c5.78,5.35,7.64,7,14.71,11.22,2.18,1.28,4.07,2.18,6.24,3.28,10.95,5.54,22.17,6.91,34.58,6.91A69,69,0,0,0,433.71,589c4.39-1.54,12.36-5.3,15.92-7.86,10.08-7.25,12.86-9.68,20.51-19.7l.19-.24.19-.24,6.07-9.92,4.13-10.14c1.95-5.19.94-2.83,2-7.5,2.62-11.5,3.17-21.91,0-33.58-3.66-13.66-4.35-15.08-11.36-26.68l-3.54-4.67c-4.14-4.3-5-6.06-10.18-10.58l-.24-.19A76.82,76.82,0,0,0,440,446.56c-3.5-1.56-10.27-4.15-14.2-4.82-8.44-1.42-6.76-1.64-16.95-2.52-8.74-.76-30.66,4.4-38.13,9.81-2.78,2-5.66,3-11.41,7.6a82.86,82.86,0,0,0-9.83,9.63c-3.95,5.06-4.63,5.15-8,11.05-.66,1.18-1.23,1.74-1.79,3-4.61,10.1-3.41,6.86-6.65,17.57C331.54,503,331.1,508.74,331.1,515.3Z"/><path class="cls-1" d="M0,440.93v14.7c0,1,.3,1.3,1.3,1.3H133.56c1,0,1.3-.3,1.3-1.3v-14.7c0-1-.3-1.29-1.3-1.29H1.3C.3,439.64,0,439.94,0,440.93Z"/><polygon class="cls-1" points="73.48 593.12 90.77 593.12 90.77 485.03 73.48 485.03 73.48 593.12"/><polygon class="cls-1" points="44.09 593.12 60.95 593.12 60.95 485.03 44.09 485.03 44.09 593.12"/><path class="cls-1" d="M545.06,593.55h17.29V528.7c0-1-7.13-8.6-8.32-9.83-1-1-1.07-1.38-1.95-2.38s-1.5-1.44-2.32-2.43a5.14,5.14,0,0,0-1-1.15c-2.48-2.32-1.81-2.73-3.68-3.23Z"/><path class="cls-1" d="M396.8,513.57c0,5-1,8.44,4.56,12.3a11.64,11.64,0,0,0,8.17,1.75,10.39,10.39,0,0,0,6.79-3.61c.23-.27,1.94-3,2-3.16,2-4.26.35-9.81-2.42-12.58C408.32,500.66,396.8,508,396.8,513.57Z"/></g></g></g></svg>