<svg xmlns="http://www.w3.org/2000/svg" viewBox="0 0 518.19 603.5"><defs><style>.cls-1{fill:#3e3f5d;fill-rule:evenodd;}</style></defs><title> 915640176</title><g id="Слой_2" data-name="Слой 2"><g id="Слой_1-2" data-name="Слой 1"><g id="_915640176" data-name=" 915640176"><path class="cls-1" d="M118,321.06c1.48,4.73,4.73,6.55,7.76,9.57,17.07,17,129,130.33,134.82,134.22,5.16-1.38,32.47-30.68,36.77-35L396,331.22c3.17-3.15,6.84-5.24,8.07-9.86l-52.32-52.91c-3.69,5.38-67.53,68.13-78.91,79.51-3.71,3.71-6.91,9-12.26,10.47L170.6,269Z"/><path class="cls-1" d="M118,142.9l52.62,53.2,89.68-90.27c5.64,1.72,8.84,7,12.55,10.76l79.81,79.22,51.71-52.33L261.47,0Z"/><path class="cls-1" d="M36.12,587.82H15.67v-15C31.12,572.83,45,570,45,581,45,585.43,40.61,587.82,36.12,587.82ZM30,559.19H15.67V544.88c15.1,0,25.22-2.59,25.22,7.5C40.89,557.61,35.25,559.19,30,559.19ZM0,602.13H37.49c6.12,0,13.14-2.29,16.77-5,9-6.81,10.34-23-.95-29.88-2.2-1.34-3.52-1.34-4.92-3.26,11.39-3,17.32-34.07-17-34.07H0Z"/><path class="cls-1" d="M120,531.93v70.2h16.36v-44.3c1.8,1.21,2.9,3.17,4.38,5.16,1.65,2.21,3,3.77,4.49,5.74L166.69,597c4.94,6.61.93,5.16,18,5.16v-70.2c0-3.36-5.38-2-14.31-2-3.16,0-2.06,5.44-2,8.86v34.08c-2.07-1.39-6.64-8-8.57-10.52-3-4-5.62-7.27-8.56-11.2l-12.37-16.26c-4.7-6.34-2.84-5-16.84-5C120.43,529.89,120,530.36,120,531.93Z"/><path class="cls-1" d="M294.43,531.93v70.2h16.36v-44.3l8.33,10.75c3.1,3.75,5.44,7.46,8.54,11.22,3,3.59,5.47,7.13,8.24,10.84,1.88,2.52,7.64,9.08,8.28,11.49h14.31V529.89H342.82v43.62c-1.93-1.41-6.59-8.09-8.47-10.62L317.21,540.5,313.13,535c-1-1.31-1.12-1.45-2.1-2.67-2.87-3.57-.79-2.48-14.56-2.48C294.9,529.89,294.43,530.36,294.43,531.93Z"/><path class="cls-1" d="M462.77,531.93v70.2H518V587.82H479.13V573.51h32c3.41,0,2-5.82,2-15H479.13V544.88h36.8c3.25,0,2-4.57,2-13,0-1.57-.47-2-2-2H464.81C463.24,529.89,462.77,530.36,462.77,531.93Z"/><path class="cls-1" d="M238.54,550.33h1.36c1.53,6.57,7,16,8.18,21.13H230.36c1.51-3.13,2.67-6.94,4.11-10.2C235.48,559,238.32,553,238.54,550.33Zm-37.48,51.8h17c.6-2.56,5.14-15.67,7.5-15.67h27.26c2.52,0,2.83,3.5,4.38,7.21,1.06,2.51,2.89,5.69,3.12,8.46h17c-.23-2.8-2.38-6.7-3.31-9L247.4,529.89H231.73Z"/><path class="cls-1" d="M378.26,564.65c0,16.72,6.8,28.47,21.57,35.68,9.31,4.54,24.43,4,33.42-.45,3.2-1.61,10.06-6.74,11.8-9.33L435,580.16c-6,4.08-9.39,8.34-19.25,8.34-18.59,0-26.63-23-15.11-37.61,4.27-5.4,9.84-6.69,16.47-6.69,7.84,0,12.31,4.33,17,7.5,2-1.31,9.6-9.94,10.23-12.27-14-9.37-13.43-10.22-32.72-10.22C395.48,529.21,378.26,546.1,378.26,564.65Z"/><path class="cls-1" d="M208,232.87l52.32,52.91c5.51-1.69,34.81-33,41.25-39.46,3.91-3.91,11.43-9.31,12.85-14.64-2.19-3.27-48.43-51.18-53.81-52.61C254.09,183.4,212.6,225.94,208,232.87Z"/><path class="cls-1" d="M28.6,232.87,80.31,285.2,134.12,232l-53.2-52.61C76.48,182.26,33.64,225.34,28.6,232.87Z"/><path class="cls-1" d="M388.22,232.58l53.2,52.61,52.32-53.51c-6.23-4.17-48.19-46.51-51.42-52.61Z"/><path class="cls-1" d="M80.42,531.93v70.2H96.78v-70.2c0-3.36-5.38-2-14.31-2C80.9,529.89,80.42,530.36,80.42,531.93Z"/></g></g></g></svg>