<svg xmlns="http://www.w3.org/2000/svg" viewBox="0 0 481.95 565.62"><defs><style>.cls-1{fill:#3e3f5d;fill-rule:evenodd;}</style></defs><title> 915621680</title><g id="Слой_2" data-name="Слой 2"><g id="Слой_1-2" data-name="Слой 1"><g id="_915621680" data-name=" 915621680"><path id="Path-1-Copy-9" class="cls-1" d="M18.24,409.72C40.46,433.25,162.52,546,354.11,415.14,492.65,307.25,489.19,73.34,475.88,2.71,471.24,13,310.33,365.37,18.24,409.72ZM475.86,2.65c-1.7-.7-179.93-25-356.13,88.48C10.31,161.61-4.15,264.75.84,333.47,257,304.81,470.05,10.73,475.86,2.65Z"/><path id="BITFINEX-Copy-3" class="cls-1" d="M56.6,558.42H34v-12H56.6c5.66,0,8.55,2.7,8.55,6.21s-2.83,5.84-8.55,5.84Zm-.74-18.51H34V529.76h21.9c6,0,8.3,2.09,8.3,5,0,2.65-2.7,5.17-8.3,5.17ZM61.64,543c9.53-.3,13-5,13-10.21,0-5.66-4.49-10.33-15.44-10.33h-35v43.18H60.23c9,0,15.68-3.75,15.68-11.81,0-5.72-3.75-10.58-14.27-10.83Zm25.82-20.54v43.18h9.78V522.44Zm49.45,8.18h21.52v-8.18H105.6v8.18h21.53v35h9.78Zm29.88-8.18v43.18h9.78V548.77h22.94v-7.08H176.57V529.88h37.27v-7.44Zm55,0v43.18h9.78V522.44ZM254.48,533l32.42,32.66H298V522.44h-9.66v31.12l-31.12-31.12H244.76v43.18h9.72Zm56.7-10.52v43.18H359v-7.26H321V546.49h22.82v-6.71H321v-9.9H359v-7.44Zm113.36,0H411.62l-16.49,15.19-16.36-15.19h-13.1l23,21.28-23.86,21.9h12.92L395,549.69l17.22,15.93H425.4l-23.93-22Z"/></g></g></g></svg>