<svg xmlns="http://www.w3.org/2000/svg" viewBox="0 0 623.91 556.54" id="drago"><defs><style>.cls-1{fill:#3e3f5d;fill-rule:evenodd;}</style></defs><title>Ресурс 1</title><g id="Слой_2" data-name="Слой 2"><g id="Слой_1-2" data-name="Слой 1"><g id="_951639072" data-name=" 951639072"><path class="cls-1" d="M596.31,183.9l1,1C597.27,184.86,596,184.24,596.31,183.9Zm-17.26-10.35,1,1C580,174.51,578.71,173.89,579.05,173.55ZM492.79,146c-5.49,2.72,6.35,3.53-10.35,0,0,15.15,8.86,37,1.07,44.52-5.2,5-4.56-.64-11.42-3.12-4.83,20.73,2.89,48.65-11.74,44.47-8.84-2.53-10.38-15.45-12.27,21.23-.19,3.53.12,6.51-.68,10-1.76,7.64.38,2.58-3.33,7.61a18.26,18.26,0,0,1-3.28,2.92c-7,3.82-7.44-7.84-13.55-10.31-6.07,11.47-7.09,14.22-9.7,28.25-4,21.36-1.05,12.22-17.91,23.5-4.67-9.74-2.51-9.92,0-20.7-44.73,10.42-33.6,65.56-79.36,65.56C287,359.87,264,316,261.62,287.41c-17.9,8.59-33.12,7.91-44-7.78-7.95-11.5-13.37-10.78-14.7-26.72-24.39-2.67-5.94-20-16.3-35.42-4.5-6.68-4.42-.06-7.85-12.89,9-13.45,16.84-24.83,20.7-41.4-31.93-.71-28.87-17.93-54.58,7.61-11.43,11.35-6.61,13.65-11.84,26.39-.12.29-5.78,10.39-6,10.75-14.81,27.18-5.5,24.64-9.62,45.69-13.75,70.19,7.26,34.88,13.07,71.51C133.4,343,135,359,151.2,363.32c-1.83-7.87-2.67-7.94-3.44-17.25,4.9,3.59,7.71,6.73,11.6,12.55,16.57,24.81-3.3,28.56,33.25,46.1,2.85-7.29,1.6.14.23-5.43l-2.46-6.16a23.27,23.27,0,0,1-1.22-2.21c23.75,5.54,43,28.89,69,31.06-.4,18-5.56,18.31-6.9,34.5l-6.83-10.43c-8.21-14.74-26.87-30.77-44.93-20.62,4.55,13.72.13-5.68,13.1,15.35,7,11.42,13,7.71,14.5,26.05L200.21,442c-22.25,4.44-26,.55-35.2,18,6.58,0,6.34-.43,12.47,1.33l11.63,5.62c10.46,5.3,13.95,4.47,20.75,13.75-37.25,0-27.82,3.54-48.3,17.26,2.21,9.48,4.69,18.11,6.9,27.6l2.53-4.37c1-4.79.81-4.49.92-9.43,22.85-.51,10.32-3.71,24-10.11,6.56-3.05,15.6-.24,31.16-.24-7.08,10.58-37.41,35.37-10.35,55.2V546.19c19.8-1.65,12.81-9.06,20.75-24.11,9.51-18,14.93-8.21,24.11-20.74,12.86,8.61,4.44,9.91,24.15,10.35,0,10.79-.66,15.16,6.9,20.7,13-55.61,4.7-33.41-13.8-58.66l13.67-3.87c2.7,6.74-1.05,7.66,7,10.77l13.8-24.15c9.14,3.69,6.44-7.1,6.9,13.8,20-10.55,16.91-15.93,27.07-28.14,11.36-13.66,61.93-4.23,120.59-55.38l27.3-27.9c8.25-9.8,16.75-23.57,22.95-35.71,19.57-38.34,25.06-79.82,18.88-121.9,23.93,1.84,10.14,4.51,8.91,17.59-1.12,11.86,4.91,17.35,15.83,20.27,3.23-6.86,1.71-13,6.9-20.71,11.95,3.19,46.38,41,39.39,13.07-1.42-5.67-5.12-10.2-8.19-13.7-9.64-11-9.77-2.51-7.64-9.39,2.85-9.19,27.59-2.28,31.65-.33-1.19-14.33-8.63-20.93-20.7-24.15V173.55c7-2.7,7.51,2.35,4.29-5.48-3.67-8.93-12.71-4.87-25-4.87V149.4c-20.68,4.82-20.7,2.32-20.7,27.6-8.13-5.44-9.1-8-16.4-14.65l-24.47-16.94c-7.68-8.35-20.28-29.37-21.24-40.87Z"/><path class="cls-1" d="M458.29,59.69c-10.17-4.11-9.3-16.06-22.13-23-12.33-6.66-5.51-2.77-8.92-1.17-2.32,6.56-2.47-3.89,6.9,13.81-29.61-6.9-9-30.18-48.31-31.06,6,16.59.9-2.78,6.9,13.8C367.38,19.92,368.47.82,348.24,5.29c-10.32,2.28-5.42,4.76-.36,9.54-18-.4-36.14-23.4-48.08-11.33C292.39,11,297.1,2,306.47,14.83c-32.72-6.93-40.15-17-50.8-6.16-11.41,11.62-3.53.8,1.84,8.65.06.1.77.59.66,1-23.25,11.16-21.28-13.5-51.76,6.9,7.42,22.36-.51-12,6.9,10.35C164.54,46.9,192.74,30.77,165,49.34c7.71,19.1-10.54-14.46,3.32,3.88,4.83,6.38,9.87.14,1.51,10.73-5.78,7.3-9.13,7.39-15.18,16.44,23.9,12.65,30.79,14.14,63.62,19.18,13.87,2.13,22.23,3.29,34.34,7.07,52.18,16.3-2.2,18,56.83,4.31,39.25-9.12,66.5,6.48,93.63,24.64,1.1-49.23,34.32-17.37,34.51-17.25,0,61.65-9.67,37.68-8.7,57.63.4,8.34,12.16,41.55,1.8,63.14,11.56-4.19,7.23-8.47,15.58-18.92,11.37-14.21,6.58,3.94,13-21.5,5.62-22.25,7-13,10.9-23.6,4.31-11.64-.35-17.47,4.42-30.09,6.59-17.43,5.24.27,8.28-26.22,3.13-27.32,9.26-30.94-7.78-55.21-6.06-8.63-8.47-11.49-20.26-14.23C457.45,54,456.72,53.15,458.29,59.69Z"/><path class="cls-1" d="M244.37,201.15l-3.45-3.45ZM344.43,190.8c16.27,0,15.43.62,27.6,3.45v6.9C354.75,201.15,351.93,201,344.43,190.8Zm-86.26-6.9c38.66-5.93,25.44-5.09,34.5,0C284.2,195.46,270,201.57,258.17,183.9Zm-17.25,13.8c-30.93-7.2-26.16-4.82-48.31,6.9,5.89,8.8,5.91,10.78,17.25,13.8-4.28,16-5.43,3-6.9,20.71,13.56.3,8.09-1,17.25,3.45-5.35,23,.1,14,13.8,34.5,39.66,0,20.41-13.18,48.31-13.8-3.37,12.62-3.64,7.23-10.35,17.25,23.76,0,13-.56,27.6-10.35l-4.08-34.42c-17.34,1.41-29.81,6.47-30.42-20.79,6.7,3.55,19.28,22.44,37.95,13.8,0,37.93,24.78,56.54,27.65,80,2.74,22.4-11.68,27.32-24.85,17.65s-12.05-18.68-26.95-28.66c1.31,58.84,97,78.27,59.23-14.37-8.88-21.78-14.38-23.8-14.38-54.64,2.72-.95,1.31,5.75,12.56-1.42l5.91-4.61c.25-.11,1.14-.28,1.39-.35l11-2.7c.32-.11,1.24-.54,1.56-.62l6.87,0c.45,0,1.5.11,2,.1l4.14-.43c.57-.07,1.61-.34,2.19-.43l4.49-.75c7.86-1.2-1.32,1.37,6.72-.83l24-15.6c-22.11-.49-9.45,1.21-20.12-10.93-.47-.53-1.09-1.35-1.58-1.86-13.5-14.25-11.44-1.89-12.8-18.26,20.36-9.77,66.18,13.6,51.76-48.31h-6.9c0,17.34-.39,17.9-3.46,31.06-20.65,4.81-33.85-3.18-46,2.07-13.13,5.69-13.1,24-29.69,23.91-7.54,0-6.09-3.46-20.9-4.29-9.59-.54-12.31,6.27-12.66-6.95-.77-28.91,12.06-24.39-20.58-33.28-7.87-2.15-.81.69-9.78-4-7-3.68-3.21-2.22-8.67-5.13-35.67-19-90.63-8.51-126.67-42.4C124.88,70,136.91,71.87,120.15,70c4,48.5,80.43,48,106,52.67,12.08,2.19,29.07,7.82,38.87,16.34-19.69,4.17-8.35-.9-39.42-8.89-19-4.89-31.65-3.64-51.9-6.76-49.53-7.62-49-20.3-77.75-39.56,1.4,62.79,108.2,57.35,141.47,86.26-15.39,3.58-22.86,2.61-31.06,13.8C220,185,234.56,189,240.92,197.7Z"/><path class="cls-1" d="M27,277.06h13.8c-6.45,4.09,7.71,3.88-6.9,2.85C26.53,279.39,30.81,279.48,27,277.06Zm0,0-6.9-3.45ZM75.3,211.5c-4.62,2.93,4.23.59-9.65,4.4-14.53,4-24.4-.13-28.31-14.75-21.93,14.69-18.22,49,31.06,44.86-6.41,8.73-.19,7.07-17.13,7.41-28.36.57-34.63-19.76-34.63-45.37-22.7,16.63-22.77,42.77,3.45,65.56-8.43,2.24-4.66-1.53-6.9,6.9C25.77,295,39.66,302.38,62.58,292c29-13.09,31.75-76.9,64.38-122,6.28-8.69,11.48-11.85,17.35-20.6l-27.55-13.92-26.47,60C85.62,206.68,86.78,208.44,75.3,211.5Z"/><path class="cls-1" d="M372,228.75c-1.78,6.7-.63,5.34-3.45,10.36-12.62-3.37-7.23-3.64-17.25-10.36,1.37,16.5,9.42,15.65-15.4,17.11a5,5,0,0,0-1.85.15c1.2,14.5,3.92,11.37,6.9,24.15,31-.69,12.35,1.38,27.6,6.9,10.74-22.39,1.4-6,12.87-13.46,9.54-6.24,1.05-10.14,14.73-7.24-2.31-9.94-5.48-15.77-15.17-22.79C375.68,229.71,379.52,230.76,372,228.75Z"/><path class="cls-1" d="M75.3,211.5c4.4-9.52,2.31-14.4-2.94-21.08l-5.43-5c-.38-.34-1.36-.94-2-1.48-11.88,6.29-9,10-24.16,10.35C46.93,220.6,52.78,200.7,75.3,211.5Z"/><polygon class="cls-1" points="372.03 228.75 372.03 225.3 368 228.18 372.03 228.75"/></g></g></g></svg>