<svg xmlns="http://www.w3.org/2000/svg" viewBox="0 0 424.08 603.93"><defs><style>.cls-1{fill:#3e3f5d;fill-rule:evenodd;}</style></defs><title> 1120514944</title><g id="Слой_2" data-name="Слой 2"><g id="Слой_1-2" data-name="Слой 1"><g id="_1120514944" data-name=" 1120514944"><path class="cls-1" d="M176.17,12.43v4.43c5.72-.5,27.22-10.59,33.11-11.08V107.72c-4.9-2.34-11.44-4.57-16.62-6.64l-50.3-20v5.54L173.66,99c5.13,2,10.25,3.91,16,6.16,2.93,1.14,4.92,2,7.92,3.16a30.32,30.32,0,0,1,3.95,1.6,10.89,10.89,0,0,1,3.32,2.22L141.7,137.64v5.54c4.81-2.56,11-4.56,16.46-6.79l51.12-20.91V483.37c-2.64-1.77-3.16-3.1-5.1-6s-3.11-4.2-5.09-7.1-2.73-3.6-4.67-6.41-3-4.71-5-7.1v7.75l15.77,23c5,6.41,4.2,5.26,4.12,15.83v99.74c5.06,1.18,4.8,1.81,7.6-2.32,2.06-3.05,3.42-4.86,5.48-7.88l73.26-103c2.76-4.15,1.62-.13,1.81-4.3v-6.65l-76.85,107.7c-1.14,1.69-1.47,2.29-2.73,3.92-1.09,1.41-2,2.49-3,3.62v-369L284.41,254v-5.54l-57-23.64c-1.61-.71-2.67-1.12-3.88-1.65a12.66,12.66,0,0,1-2.28-1,6.7,6.7,0,0,1-2-1.36l81.48-32.13v-4.44l-85.91,33.25V115.48L275.3,137c3.49,1.37,5,2.48,9.16,2.85v-4.43l-69.64-25.49c0-15.38,1.83-103.57-1.11-109.7C211.54-1.9,178.67,11,176.17,12.43Z"/><path class="cls-1" d="M124.78,373.67V367c-.57-4.07-26.58-38.78-28.84-41.8-23.82-31.79-50.62-71.84-74.57-104.94L6.5,198.59l135.2-55.41v-5.54c-5.12,2.45-10.94,4.6-16.48,6.81L74.89,165C63.45,170,52.83,174.32,41.16,179L7.6,193.05c1.4-6,47-105.34,52.83-117.82,1.52-3.28,2.21-5.6,3.68-8.51s3-4.63,3.33-8.86C76.69,60,91.31,68.32,98.29,68.94V64.51L75.2,55.64c2.94-4,15.21-6.26,23.38-10V40.13c-4.13,2.07-7.5,2.86-12.14,4.59-25.88,9.66-19.59,4.13-28.6,23.48L3.92,188.25c-5.11,10.88-6.74,7.31,4.63,22.7L117.3,363.7C119.29,366.53,122.37,371.54,124.78,373.67Z"/><path class="cls-1" d="M365.32,187.51l25.7,57.6c1.49,3.33,25.1,53.21,25.47,57.64L365.27,281.7v5.54l39,15.54c4.13,1.83,9.29,3.58,13.32,5.51-.9,3.38-13.51,20.57-16.45,24.55-6.12,8.28-11.36,16.19-17.59,24.52-3.06,4.1-32.83,45.31-34.33,49.55v6.65c2.4-2,2.82-3.13,4.77-6l53-74.46c3.41-4.95,6.25-8.92,9.69-13.58,1.73-2.33,2.76-4,4.63-6.47,2.22-2.87,3.58-4,2.29-8.4a72.1,72.1,0,0,0-3.38-7.84L409.47,273.2c-2.56-5.47-5.1-10.81-7.37-15.9-2.52-5.65-4.63-10.13-7.13-16.14L373.29,193c-2.67-5.37-4.73-12.27-8-15.5Z"/><path class="cls-1" d="M284.46,139.86,350,164.24c-4.75,3.3-42,16.06-49.28,19.94v4.44l55.93-21.06c.85,3.69,6.8,16.7,8.66,19.95v-10c-.64-4.41-1.87-6.49-3.81-10.4-2.74-5.58-2.44-4.87-8.57-6.94l-68.48-24.77Z"/><path class="cls-1" d="M124.78,373.67l64.09,90.27c.11.12.35.4.53.59v-7.75l-55.69-78.46c-1.67-2.45-2.7-3.64-4.19-5.78-2.06-3-1.75-3.65-4.74-5.52Z"/><path class="cls-1" d="M297.43,478.94v6.65c4.9-2.76,9.84-12.27,13.33-17.09l32.16-45.41c2.46-3.57,4.59-5.37,6.31-9.53v-6.65C347.5,408,301.34,471,297.43,478.94Z"/><path class="cls-1" d="M284.41,254c5.95,1.27,14.17,5.59,20,7.93l60.86,25.32V281.7l-70.35-29.13c-3.86-1.54-6.84-3.33-10.51-4.12Z"/><path class="cls-1" d="M98.58,40.13v5.54a101.14,101.14,0,0,0,9.7-3.49l67.89-25.32V12.43c-8.17,1.8-28.68,10.39-38.51,13.7Z"/><path class="cls-1" d="M98.29,68.94c4.2,3.27,15.65,6.63,21.25,8.86,7.68,3,14.85,6,22.82,8.87V81.13c-8-2.84-14.24-5.2-22.2-8.39-4.1-1.64-6.4-2.47-10.44-4-3.37-1.25-7.58-3.44-11.43-4.27Z"/></g></g></g></svg>