<svg xmlns="http://www.w3.org/2000/svg" viewBox="0 0 391.85 609.28"><defs><style>.cls-1{fill:#3e3f5d;fill-rule:evenodd;}</style></defs><title> 1120504928</title><g id="Слой_2" data-name="Слой 2"><g id="Слой_1-2" data-name="Слой 1"><g id="_1120504928" data-name=" 1120504928"><path class="cls-1" d="M8.74,502.94,5.47,542.89c-.83,6.22-1.35,24.06-2.28,30.25a89,89,0,0,0-.76,10.41c2.92.06,6.55,1,9.71,1,12.72,0,7.9-2,8.87-9.1.72-5.23,2.3-45.78,2.3-51.6,1.51,1.75,3.06,10.78,3.69,13.31,1.18,4.75,2.11,8.94,3.3,13.69l4.91,20.34c1.37,2,14.41,1.34,17,1,3.62-.5,2.5.94,4.71-7.92,1.08-4.33,2.16-9.17,3.3-13.69,1.08-4.31,2.4-9.06,3.28-13.23l3.36-13.15a2,2,0,0,1,.16-.33c0,6.19.5,10.67.47,17,0,5.43,1.44,19.6,1.49,25.22L70,583c.66,1.68.77,1,3.23,1.14,10.94.77,7.23-.39,14.64-.55L83.65,526.6C83.28,523.84,82.55,506,82,504c-.65-2.15-7.88-2-10.58-2-4.95,0-10-.1-14.57,1-.28,3.39-11.17,43.46-11.17,50-1.5-1.1-.73-.25-1.2-2.69-1.38-7.09-9.62-44.58-10.94-47.33C27.59,501.56,14.57,501.59,8.74,502.94Z"/><path class="cls-1" d="M0,445.65c0,10.9,2.52,21.6,8.6,29.76,11.26,15.12,34.52,13.22,51.52,9,1.8-.45,5.57-1.7,7.37-1.85,0-8.63,1.12-30.65-.89-36.5-1.61-4.67-5.45-6.76-11.72-6.73s-12.63,0-19,0c-.18,2.15-4.87,16,5.83,16h7.77l-.49,16-11.16.49c-22.57,0-20-36.05-13.81-45.36C30,417.46,41,417.59,50,421a67.85,67.85,0,0,1,8.8,4.3c3-2.57,8.26-7.81,8.26-13.11,0-3.28-19.46-9.22-27.68-9.22-7.22,0-12.9.74-19.1,4.21A37.2,37.2,0,0,0,5.67,421.69C2.15,428,0,437.86,0,445.65Z"/><path class="cls-1" d="M316.1,554.9c0-3.81.6-18,6.31-18,5.17,0,9.23,2.65,9.23,4.37v23.31C331.64,567,316.1,578.65,316.1,554.9Zm9.71,54.38h-9.7c-5.72-.08-5-.6-17-3.4a23.06,23.06,0,0,1,4.37-13.59c2.88.24,13.8,5.79,22.5,2.11a7.29,7.29,0,0,0,3.53-2.79c1.81-2.67,2.13-6.66,2.13-11-1.46.39-4.27,2.16-6.3,2.93-4.71,1.76-8.07,1.73-13,.39-12.08-3.24-15.62-18.62-15.62-30.51A58.84,58.84,0,0,1,298.33,542a33.8,33.8,0,0,1,4-9.1c3.05-4.9,10-10,15.71-10,9.49,0,10.74.18,18.45,5.34a8.25,8.25,0,0,1,4.36-3.4c6.7-2.78,7.46-.86,9.92,2.71,3.94,5.71,1.57,6.25.78,7.5-5.09,8.06,1.23,41.66-3.83,57.84-1.33,4.25-1.79,5.14-4.22,8.41C340.53,605.27,332.65,609.28,325.81,609.28Z"/><path class="cls-1" d="M138.87,425.74c-1.21,5.22-.48,49.27-.48,58.27,0,3.92,15.88,1.71,18.93,1.45V445.65c1.48-.4,1.94-1.24,3.71-2.13,2.81-1.41,8.23-2.76,9.22,1.82a36.64,36.64,0,0,1,.69,6.6c0,4.61-.48,25.54.37,28.27,2.87,9.17,14.3,6.81,21,2.34-1.87-8-2.42.34-2.42-16.51,0-16,3.48-40.79-18-40.79a21.73,21.73,0,0,0-8.75,2.42c-5.25,2.58-4.3,3.69-7.27,4.38C155.24,424.58,141.88,424.57,138.87,425.74Z"/><path class="cls-1" d="M136,525.76v56.33c0,1.93,2,1.88,3.87,2,5.07.22,8.23,1.09,15.07-.5l0-38.33c.49-2.79,5.42-4.89,9.2-4.89,4.47,0,4.4,5.15,4.37,9.71s-.38,25.22.45,28.2c2.06,7.32,10.75,7.12,16,5.26,2.31-.82,3.11-1.67,4.91-2.87a15.64,15.64,0,0,0-1.27-3.1,17.63,17.63,0,0,1-1-3.88c-1.57-9.87,2.86-33.94-4.05-43.53-6.53-9.07-17.35-8.23-25.86-2.52-1.44,1-2.08,1.72-3.29,2.53-4.23-3.1-.47-6.79-16-6.79A2.74,2.74,0,0,0,136,525.76Z"/><path class="cls-1" d="M235.5,525.76v56.33c0,3.85,16.92,1.93,18.94,1.46l0-38.33c.51-2.89,5.13-4.89,9.19-4.89,4.41,0,4.4,5.2,4.38,9.71,0,4.67-.39,25.22.45,28.2,2.05,7.32,10.74,7.12,16,5.26,2.31-.82,3.12-1.67,4.91-2.87-.56-2.41-1.5-2.25-2.25-7-1.53-9.6,2.78-34.08-4-43.53-6.52-9-17.33-8.25-25.86-2.52-1.44,1-2.08,1.72-3.29,2.53-1.86-1.36-1.86-3.28-4.63-5.07C247.54,523.9,235.5,521.24,235.5,525.76Z"/><path class="cls-1" d="M233.56,447.59v1.46H218.5c0-5.74,1.73-10.71,6.9-11.05C230.73,437.64,233.56,442.28,233.56,447.59Zm-34,6.31c0,9.11.57,19.26,6.91,25.62,2.61,2.63,4,4.21,7.85,5.75,15.29,6.11,34.76-3.14,34.76-5.15,0-3.5-2.81-9.18-4.85-10.68-7.35,1.71-24.31,9.9-25.74-7.28h30.59c3.36-7,3-25.71-8-33.24-2.49-1.7-7.32-3.86-10.92-4.13-10-.76-16.9,1.11-22.44,6.64C203,436.09,199.57,444.69,199.57,453.9Z"/><path class="cls-1" d="M95.66,447.59c0-5.22,2.59-10.28,8.07-9.55s7,5.84,7,11h-15Zm6.79,39.81c10.36,0,16.07-2.7,23.8-6.79a16.45,16.45,0,0,0-1.61-6.16,26.41,26.41,0,0,0-1.33-2.56c-.9-1.42-1-.7-1.43-2.45-2.47.2-4.95,1.57-7.49,2.22-8.15,2.08-18.73,2.6-18.73-9.5h30.59c3.62-15.57,1.16-32.93-16.54-36.88-11.42-2.56-22.12.86-28.53,10.74C74.16,446.83,70.72,487.4,102.45,487.4Z"/><path class="cls-1" d="M258.32,443.7c0,21,26.71,17.61,26.71,25.74,0,4.56-5.22,3.88-8.26,3.88-4.52,0-11.94-3.21-15-4.85-.36,1.33-4.86,6.63-4.86,12.14,0,1.7,2.95,2.36,4.37,2.92,11,4.32,25.53,6.13,35.66-.77,10.63-7.23,10.38-24.39-2.48-31.45a54.36,54.36,0,0,0-9-3.66c-4.7-1.7-8.19-2.24-8.19-5.89,0-8.19,19.83.62,21.36,1,2.4-3.58,4.86-6.59,4.86-12.62,0-1.72-27.17-11.89-40,.83A19.9,19.9,0,0,0,258.32,443.7Z"/><path class="cls-1" d="M346.21,443.22c0,22.24,26.7,17.54,26.7,26.7,0,3.38-5.44,3.4-7.77,3.4-5.35,0-11.94-2.95-15.53-4.85-2.1,3.13-4.86,7-4.86,12.14,0,3.17,25.67,11.52,39.13,2.7,7.69-5,8-10,8-16.59v-1.16c0-11.37-12.19-15.69-19.61-18.27-11.25-3.92-8.74-8.93-1.75-8.93,5.19,0,11.6,2.55,15.05,4.37,3.44-2.3,5.7-7.55,5.83-13.11-9.78-5.17-30.06-8.57-40,1.32A18.28,18.28,0,0,0,346.21,443.22Z"/><path class="cls-1" d="M196.17,524.31c-1.35,5.77-1.3,8,0,13.59,3.79,0,6.61-.07,7.23,5.88l0,39.77c7.62,1.77,11.86.59,18.94,0V547.13c0-6.28.35-11.82-1.64-16.32C216.53,521.27,204.44,524.31,196.17,524.31Z"/><path class="cls-1" d="M308.82,432.05c0,13.53,3.17,4.34,6.92,9.59,1.8,2.51,1.33,9.4,1.33,13.72v30.1a71.54,71.54,0,0,0,10.19,1c3.42-.18,8.75-.17,8.75-2.44V441.76c0-19.88-16.23-15.58-23.33-15.56C310.45,426.21,308.82,424.8,308.82,432.05Z"/><path class="cls-1" d="M96.63,524.42a24.42,24.42,0,0,0,0,13.48c9.2,0,7.28,4.73,7.28,18.94v26.71c7.62,1.77,11.86.59,18.94,0V547.13c0-6.54.45-12.12-1.79-16.66C116.73,521.7,105.84,524,96.63,524.42Z"/><path class="cls-1" d="M296.12,38c0,20.89,16.32,39.18,40.16,39.18C375.4,77.2,388,20.1,351,3.73,321.93-9.12,296.12,14.47,296.12,38Z"/><path class="cls-1" d="M99.23,333.84c0,41.69,56.4,53.51,73.48,16.67,11.89-25.64-6.1-54.87-36.26-54.87C116.69,295.64,99.23,313.76,99.23,333.84Z"/><path class="cls-1" d="M296.12,333.84a39.25,39.25,0,0,0,22.51,35.28c26.91,12.52,54.87-8.52,54.87-35.28,0-32.44-40.66-51.95-65.9-26.72C302.08,312.64,296.12,323.32,296.12,333.84Z"/><path class="cls-1" d="M296.12,234.91c0,23,17.78,39.18,40.16,39.18,19.75,0,37.22-18.23,37.22-38.2,0-21.45-17.67-38.43-38.29-39C315.11,196.31,296.12,214.74,296.12,234.91Z"/><path class="cls-1" d="M99.23,38c0,12.41,4.58,20.79,11,27.19,36.08,36,89.76-15.53,55.33-53.37-9.91-10.88-27-14.9-42.44-8.69C109.75,8.52,99.23,22.5,99.23,38Z"/><path class="cls-1" d="M99.23,234.91c0,40.48,54.37,55.48,73.5,16.69,18.51-37.55-31.06-72.71-61.53-43.91C105.47,213.1,99.23,224,99.23,234.91Z"/><path class="cls-1" d="M198.17,133v6.85c0,19.51,19.05,36,38.2,36s38.2-16.46,38.2-36c0-11.67-2.13-22-11.5-30.62C236.1,84.4,198.17,107.76,198.17,133Z"/><path class="cls-1" d="M99.23,137c0,21.66,17.61,38.43,38.29,39,10.15.29,20.23-4.86,27.48-11.44,2.23-2,6.63-8.38,8-11.58,6.64-15.36,3.23-31.44-7.39-42.21C139.75,84.52,99.23,104.6,99.23,137Z"/><path class="cls-1" d="M296.12,137c0,26.81,27.8,46.91,54.2,35.59a56.45,56.45,0,0,0,11.69-7.9,39.19,39.19,0,0,0,7.88-11.71c11.29-26.83-6.91-54.18-36.55-54.18C313.62,98.75,296.12,117.18,296.12,137Z"/><path class="cls-1" d="M1.28,231v7.84c0,18.84,16.92,35.26,40.16,35.26,30.49,0,49.5-40.72,25.25-65.41C39.63,181.13,1.28,207.59,1.28,231Z"/><path class="cls-1" d="M198.17,233c0,11.67,2.12,22,11.49,30.62,23,21.2,64.91,10.16,64.91-30.62,0-19.51-19.06-36-38.2-36S198.17,213.44,198.17,233Z"/><path class="cls-1" d="M198.17,36.06c0,11.73,2.37,22.82,12,31.08,28,24,64.39,1.19,64.39-26.18,0-18.5-7.33-30-23.15-37.58C226.87-8.32,198.17,12.28,198.17,36.06Z"/><path class="cls-1" d="M1.28,139.94c.08,5.26.69,8.7,4.22,15.32C23.41,188.86,77.68,180,77.68,135c0-18.82-16.6-36.25-40.16-36.25-18.26,0-36.24,17-36.24,35.26Z"/><path class="cls-1" d="M1.28,34.1c0,12.69,1.05,23.36,11.5,32.58,38.57,34.05,88.05-20.86,53.41-55.37-14.1-14-38.12-15.4-52.44-1C7.62,16.51,1.28,24.16,1.28,34.1Z"/><path class="cls-1" d="M198.17,329.92c0,15.27.87,20.89,12,32.1,14.2,14.31,38,14.22,52.44,0,12.55-12.38,15.64-29.45,8.09-44.87L263,306.27c-.88-.8-3.88-3.18-4.89-3.93-13.94-10.3-34.25-8.32-47.89,3.36a55.38,55.38,0,0,0-7.72,9.91C201,318.26,198.17,326.27,198.17,329.92Z"/><path class="cls-1" d="M1.28,330.9c0,14.33,1.38,20.4,12,31.11,14.38,14.53,38.13,14.13,52.43,0,35.11-34.64-13-89.32-52.39-56.32C7.74,310.37,1.28,320.94,1.28,330.9Z"/><path class="cls-1" d="M109.74,516.54c10.25,0,11.17-1.57,11.17-9.71s-4.6-7.77-12.14-7.77c-6.75,0-8.74,2.57-8.48,9.1C100.54,514.49,101.81,516.54,109.74,516.54Z"/><path class="cls-1" d="M313.19,409.23c0,8.54,3.46,9.23,11.17,9.23,2.21,0,6.8-.75,7.95-1.76,2.08-1.81,2.39-11.66.05-14-1-1-3.85-1.58-7-1.72h-2.92c-3.07.14-6,.69-7.16,1.65S313.19,407.5,313.19,409.23Z"/><path class="cls-1" d="M209.28,516.54c3,0,8.66,0,10-2.59,1.58-3,1.56-11-.58-13.18-2.34-2.34-14.82-2.36-17.3.15-2.14,2.18-2.31,11.92.26,14C202.91,515.88,207.06,516.54,209.28,516.54Z"/></g></g></g></svg>