<svg xmlns="http://www.w3.org/2000/svg" viewBox="0 0 460.07 603.86"><defs><style>.cls-1{fill:#3e3f5d;fill-rule:evenodd;}</style></defs><title> 915666128</title><g id="Слой_2" data-name="Слой 2"><g id="Слой_1-2" data-name="Слой 1"><g id="_915666128" data-name=" 915666128"><path class="cls-1" d="M144,438.8l21.54-63.37c31.36-73,61.43-96,109.9-146.68,37.22-38.93,36.86-77.74,20.1-128.39C285.13,68.83,244.35,5.2,224.1,0c-1.94,12.35,3.68,31.3-4.14,71.23-4,20.59-12.1,43.3-21.07,59.34-12.82,22.92-33.25,51.09-53.45,67.05C88,243,66,326.22,105.77,396.78,112.42,408.58,133.59,437,144,438.8Z"/><path class="cls-1" d="M188.75,465.56c44.23,8.58,65.66,14.62,109.34-2.41,31.53-12.3,57.52-34.94,72.91-58.48,18.48-28.28,27.48-64.36,24.18-105.54-2.12-26.43-16.39-87.74-31.65-99.5-3.24,2.69-13.87,30.46-17.09,36.69-14.57,28.3-36.7,56.52-58.41,79.21-34.17,35.7-67.54,57.42-75.77,117.26C207.4,468.1,191,446.05,188.75,465.56Z"/><path class="cls-1" d="M80.39,600.29c5.41.68,20.13,2.43,23.29-1,2.29-2.46,9.26-95.39,10.14-105.45.63-7.12,3.09-18.14-.4-20.11-2.93-1.64-19.22-.53-21.41.52-2.63,2.13-3.23,20.71-3.6,25-.73,8.54-1.39,16.9-2.31,25.91H31.16c.4-8.55,1.39-17.45,2.14-25.9.33-3.72,3-23.17.72-25.16-5.38-2-17.84-1.43-23.43-.08C8.66,485.89-1.16,594.45.11,599.48c3.63,1.86,17.19,2,21.86.51l1.74-.89c3.84-7.75,3.32-41.33,5.85-53.8l54.44.13C84.28,558.9,78.28,590.72,80.39,600.29Z"/><path class="cls-1" d="M365,528.83c32.7-9.61,37,45.85,7.33,53.3C340.13,590.2,334,537.93,365,528.83ZM350.89,515c.46-8.91,4.73-37.14,2.33-43.44-5.63-1.15-17-1.88-21.18.58-1.59,1.42-1.77,4.26-2,7.26-2,22.59-11,115-9.69,121.27l22.45-.3,1.81-5.36c8.51,5.4,9.69,8.06,22.82,8.56,9.35.35,18.24-1.62,24.84-6,39.36-26.15,29.76-93.13-16.85-90.36C359.92,508.1,357.41,513.18,350.89,515Z"/><path class="cls-1" d="M260.59,529.25c16.38-5.65,27.49,5.58,28.59,20.6,2.74,37.62-45.78,45.36-48,11.53C240.29,546.86,246.72,534,260.59,529.25ZM313,556.75c7.94-64-88.21-68-95.59-2.7C210.23,617.71,304.88,622.2,313,556.75Z"/><path class="cls-1" d="M187.7,510.66c-4.22,23.24-.7,58.94-12.83,69.49-5,4.34-14,5.45-19.9,1.67-14.57-9.32.29-61.08-2.63-69.36-1.57-4.48-18.18-2.88-22.92-1.8-2,11.13-6,53.05-4.86,64.13,2.27,21.94,17.66,29.59,40.65,28.75,22.11-.8,34.81-11.33,39.63-30,.85-3.31,6.84-53.51,5.74-60C209.4,506.64,192.64,509.53,187.7,510.66Z"/><path class="cls-1" d="M433.62,600.86c20.89.77,15.53,3.24,18.92-34,.88-9.68,1.69-19.15,2.56-28.89l.69-27.49c-7.09-1.68-21.1-3.85-22.64,5.34l-3.41,39.51c-.7,7.82-4.69,38.65-3.07,43.48Z"/><path class="cls-1" d="M435.84,495.84c2.89,1.59,12.13,1.67,16.38,1.3a7.08,7.08,0,0,0,3-.55c4.7-1.63,4.72-8.66,4.79-16,.08-7.61-3.66-5.62-11.35-5.6-6.58,0-11.39-1.93-12.59,4.68C435.27,484.31,434.47,492.31,435.84,495.84Z"/></g></g></g></svg>