<svg xmlns="http://www.w3.org/2000/svg" viewBox="0 0 512.21 597.73" id="ibfs"><defs><style>.cls-1{fill:#3e3f5d;fill-rule:evenodd;}</style></defs><title>Ресурс 2</title><g id="Слой_2" data-name="Слой 2"><g id="Слой_1-2" data-name="Слой 1"><path class="cls-1" d="M149.58,486.63c9.12,0,16.77-.14,19,7.42,1.86,6.26,1.39,19.22,1.39,26.15,0,20.74,3.43,32-20.44,32Zm.4-89.36c19.82-.53,20.12,6.8,20,26.13-.17,20.06,1.15,26.9-20.35,26ZM87.2,592.36c15.67,2.66,58.36.58,76.52.45,24.19-.18,50,.79,60.71-16.09,9.39-14.79,13.92-79.17-1.56-97.46-7.11-8.41-14.19-8.1-25.22-13.77,7.36-5,15.68-4.6,22.16-11.22s7.61-17.5,7.85-28.06c1.23-55.38-21-68.62-70.9-69.45-18.45-.3-52.21-1.86-69.19.29Z"/><path class="cls-1" d="M372.17,508.44c-2.3,17.24.45,48.8,7.9,62,16.83,29.72,73,34.63,106.61,17.45,18.14-9.27,24.12-21.35,25.25-46.58,2.42-54.22-10.32-66.2-51.38-92.07-7.73-4.86-14.39-8.18-21.41-13.65-8.56-6.67-11.24-11.24-11-26.23.1-5.07.9-11.84,4.11-14.84,3.64-3.4,10.77-3.72,14.07.07,4.17,4.77,2,25.63,3.11,33.52l57.08.24c8.5-58.72-26.29-81.37-80.43-76.15-23.22,2.25-42.45,11.87-50.25,28-8.09,16.78-7.82,51.36-1,69.07,8.57,22.17,39.56,38.05,63.27,54.65,9.56,6.7,13.34,10.7,14.53,26.19.88,11.4.92,26.75-11.36,27.64-14.35,1-11.72-17.83-11.71-29.14,0-23.44,4.69-20.5-17.56-20.43C399.56,508.22,384.28,507.38,372.17,508.44Z"/><polygon class="cls-1" points="254.51 592.97 316.22 592.84 316.84 493.83 354.9 493.63 355.2 448.73 316.9 448.66 316.83 404 359.21 403.97 359.68 356.8 254.64 356.76 254.51 592.97"/><polygon class="cls-1" points="0 592.47 62 592.84 62.28 356.95 0.53 356.71 0 592.47"/><path class="cls-1" d="M367.93,126.07c-4.69,4.86-13.87,10.53-11.19,21.64,2,8.27,11.84,12.21,15.65,19.74l3.71,2.86c1.71,1.59,2.5,2.47,4.34,4.13,3.25,2.93,5.41,5.79,8.63,8.19,14.33,10.67,26.77-7.37,41.29-21.52,5.14-5,13.59-10.82,10.37-21.86-1.21-4.15-27.87-30.36-32.88-34.29C394.51,94.48,381.75,111.8,367.93,126.07Z"/><path class="cls-1" d="M85.12,102.91c-6.5,2.18-17,14.13-22.71,19.93C40,145.51,41.9,144.62,68.23,170.91c24.18,24.15,24.65,18.73,49.21-5.63,21.93-21.76,21.91-22.05-5.41-48C104.63,110.26,98,98.58,85.12,102.91Z"/><path class="cls-1" d="M343.08,237.4c17.74-2.49,20.39-11.66,39.12-29.07,17.6-16.36,2.54-25.18-12.39-39.52-7.31-6.49-18.31-24-32.5-12.37-8.54,7-16.2,15.71-25.74,24.77-16.73,15.89-.65,26.86,18,44.13,2.63,2.44,4,4,6.34,6.12l6.37,5.23C342.41,236.44,342.84,237.14,343.08,237.4Z"/><path class="cls-1" d="M259.13,55.83C273.62,64.44,289,97.33,307.56,79c2.79-2.75,3.8-3.87,7.06-7,4.62-4.41,3.56-4.45,8.34-6.62,3.06-9.72,27.29-17.33,9.42-35.13C294.68-7.31,298.9-9.23,269,20.79c-2.94,3-11.38,10-13.78,14.26C248.67,46.71,258,51.23,259.13,55.83Z"/><path class="cls-1" d="M147.21,135.15c15.6-18.82,41.1-30.29,36-46.74-1.47-4.73-15.28-17.23-19.58-21.32-8.77-8.33-11-17.27-27.66-15.14-6,3.18-16.37,14.29-21.31,19.35-21,21.57-23.51,21.37,4.71,48.51C128.51,128.6,129.3,135.08,147.21,135.15Z"/><path class="cls-1" d="M324.26,66.6c-4.7,8.5-16.65,15.53-18.6,21.9-3.78,12.35,8.81,20.09,13.81,24.86,5.55,5.29,14.11,15.42,19.92,19.43,12.24,8.43,20.73-4.92,26.1-9.17,21.2-23.92,37.93-23.52,10.83-50.31-4.52-4.46-18.81-19.63-23.75-21.22C337,47.05,332.8,63.52,324.26,66.6Z"/><path class="cls-1" d="M133.86,234.91c15.43,3.94,19.71-4,27.57-11.62,28.23-27.26,29.19-26.72,9.86-47.38-5.44-5.81-17.09-14.47-20.44-21.22-15.86-3.75-17.9-.12-27.48,9.47-25.93,26-35.34,26.56-11,49.74C118.85,220.1,126.78,230.11,133.86,234.91Z"/><path class="cls-1" d="M290.35,103.46c-8.29,4-15.84,13.27-22.62,19.88-24.53,23.94-16.51,24,7.5,48.27,8,8.13,14.45,17.42,25.77,13.2,6.95-2.59,16.61-14.84,22.31-19.95C329.5,159.3,341.94,150.29,337,138c-2.66-6.55-14.55-15.3-20.56-21.57C311.16,111,302.16,97.75,290.35,103.46Z"/><path class="cls-1" d="M255.81,235.64c-4.62,18.45-1,17.41,9.89,28.25,23.93,23.76,27.77,34.41,50.16,10,2.65-2.89,19.76-20.3,21.62-21.68,2.4-16.12-6.81-21-13.91-27.94-25.38-24.84-25.51-28.58-46.88-7.76C271.9,221.2,260.78,233.35,255.81,235.64Z"/><path class="cls-1" d="M249.07,236.42l5.07-2.33c4.49-6.76,14.62-15.3,21-21.85,19.87-20.36,13.93-22-11.69-47.1-22.38-21.92-23.73-13.68-47.79,10-21.33,21-19.11,20.83,6.91,46.33C231.16,229.86,234.35,237.58,249.07,236.42Z"/><path class="cls-1" d="M236.5,52.25c-10.29,15.22-34.73,28-34.45,41.35.24,11.43,35.06,40,36.56,40.53,12.31,4.66,19.95-6.69,25.23-11.88,32.55-32,30.61-27.59-.42-58-3.55-3.48-2.59-2-4.59-6.22l-3.74-2.37c-1.71-1.3-2.41-2.46-5.08-3.45C245.61,50.57,239.93,52,236.5,52.25Z"/><path class="cls-1" d="M150.3,47.89c6.55,5.28,31.49,35.31,40.17,36.44,11.62,1.51,26.51-17.48,37.75-28.49l6.21-4.8c-.6-17.34,6.08-9.92-13.16-28.91-28.92-28.56-26.89-28.68-52.77-3.6C158.8,27.94,151.23,30.61,150.3,47.89Z"/><path class="cls-1" d="M155,257.41c11.12,6.1,27,34.6,43.28,29.39,5.14-1.65,34.3-32.2,36.67-36,1-11.46-.8-12.54-6.67-18.25-35-34-29.64-41.32-64.89-5.91C150.14,240,146.91,240.14,155,257.41Z"/><path class="cls-1" d="M151.06,149.81c1.44,1.81.57.48.79,2.56,13.86,8.43,30.68,40.06,47.82,32,3.57-1.69,17-15.79,21-19.73,22.33-22.4,19.89-22.14-6.11-47.34-5.69-5.51-14-18.42-26.29-14.55-4.4,1.38-26.33,23.71-32,29.77S150,139.29,151.06,149.81Z"/></g></g></svg>