<svg xmlns="http://www.w3.org/2000/svg" viewBox="0 0 482.37 603.93" id="iota"><defs><style>.cls-1{fill:#3e3f5d;fill-rule:evenodd;}</style></defs><title> 951626464</title><g id="Слой_2" data-name="Слой 2"><g id="Слой_1-2" data-name="Слой 1"><g id="_951626464" data-name=" 951626464"><path class="cls-1" d="M85.81,535.19c0-26.46,8.12-47,28.9-59.52,11-6.61,20-6.46,32.47-6.46,17.55,0,32.81,12.62,41,26.26,10.85,18,11.84,44.61,4.59,64.24-2.87,7.77-5.53,11.82-10,17.72-7.43,9.82-23.39,18.46-36.31,18.46-14.36,0-27.59-1.32-38.76-11.38-1.58-1.42-2.63-1.93-4-3.28s-1.87-2.41-3.27-4C92.65,568.49,85.81,551.71,85.81,535.19Zm-9.24-2.64c0,26.26,11.7,53.33,35.39,64.9,24.45,11.95,59.87,7.47,77.35-14.19,1.35-1.67,2.18-2.39,3.6-4.32,18.51-25.26,18.46-69.25-1.14-94.28-7.09-9.05-12.4-13.25-23.69-18.54-19.68-9.23-50-6.28-67.61,9.17C85,488.86,76.57,507,76.57,532.55Z"/><path class="cls-1" d="M364.92,600.51h9.24c1.85-7.94,49.11-121.47,49.49-126H425c.19,2.36,1.85,5.64,2.73,7.83,1,2.43,2.19,5.65,3.1,8.11l42.33,110.09h9.24a62.29,62.29,0,0,0-3.2-8.67l-30.45-77.11c-2.33-5.82-4.67-11.36-7-17.43l-10-25.65-1.67-4.27c-1.63-4.17-1.14-3.45-9.08-3.45-2.64,0-3.18,3.64-4.62,7.25l-24.23,60.24c-2.35,5.87-4.51,11.28-6.78,17-1.15,2.87-2.25,5.43-3.5,8.38-1.36,3.24-2.1,5.8-3.54,9l-6.82,16.93C370.14,586.15,365.17,597.52,364.92,600.51Z"/><path class="cls-1" d="M240.87,465.91v5.94h47.51V600.51h9.24V471.85h48.17c0-5.63.77-7.92-2-7.92h-101C241.33,463.93,240.87,464.39,240.87,465.91Z"/><path class="cls-1" d="M8.61,465.91V598.53c0,2.88,2.8,2,9.23,2V465.91c0-2.7-2.06-2-7.25-2C9.07,463.93,8.61,464.39,8.61,465.91Z"/><path class="cls-1" d="M294.39,23.05c0,16.11,10.74,27.24,21,27.24,9.33,0,16.88.36,23.69-7.74C356.09,22.25,337,0,324.77,0h-2.15C314.26,0,307.47.4,301,7.61,298.06,10.8,294.39,17.3,294.39,23.05Z"/><path class="cls-1" d="M322.68,381.35a25.14,25.14,0,0,0,7,18.12C345.27,415.6,374,407,374,380.3c0-12-11.48-24.1-25.14-24.1C334.77,356.2,322.68,367.62,322.68,381.35Z"/><path class="cls-1" d="M0,225.25v6.28c0,11.23,11.88,22,23.05,22h5.24c10.64,0,22-11.35,22-22,0-11.07.38-14.11-8.08-22.3C26,193.56,0,207.49,0,225.25Z"/><path class="cls-1" d="M57.62,187.53c0,30.73,44,30.73,44,0C101.62,160.46,57.62,159.7,57.62,187.53Z"/><path class="cls-1" d="M265.06,353.06c0,32.84,44,28.9,44,2.1C309.06,325.12,265.06,326.41,265.06,353.06Z"/><path class="cls-1" d="M361.44,99.53c0,11.17,8.82,22,19.91,22,7.76,0,12.83-.23,18.58-6.56,12.23-13.45,3.24-37.54-16.35-37.06C370.4,78.23,361.44,88.82,361.44,99.53Z"/><path class="cls-1" d="M36.67,132c0,9.23.95,19,12.72,23.94,9.2,3.88,17.08,2,23.73-4.26,8.93-8.47,10-21,1.55-30.45C59.91,104.69,36.67,118.68,36.67,132Z"/><path class="cls-1" d="M229.44,399.16c0,10.71,9.21,22,19.9,22h6.29c7.68,0,17.81-10.13,17.81-17.81s.59-14.06-7.6-20.69c-8.88-7.18-20.84-7-29.37,1.53C233,387.67,229.44,393.83,229.44,399.16Z"/><path class="cls-1" d="M304.87,91.15c0,28.92,44,33.27,44-2.1,0-4.85-4.25-10.2-7-12.88a21.58,21.58,0,0,0-30,0C308.78,79.28,304.87,85.51,304.87,91.15Z"/><path class="cls-1" d="M92.19,112.1c0,27.8,37.72,25.05,37.72,1.05C129.91,88.47,92.19,88.69,92.19,112.1Z"/><path class="cls-1" d="M149.82,395c0,27.19,37.71,24.94,37.71,1C187.53,370.92,149.82,371.28,149.82,395Z"/><path class="cls-1" d="M113.15,166.58c0,21.1,37.71,29.25,37.71-3.14,0-7.38-8.34-15.72-15.71-15.72h-6.29C120.65,147.72,113.15,158.06,113.15,166.58Z"/><path class="cls-1" d="M222.1,319.54c0,15.06,16.91,26.17,31.05,15.33,13.42-10.27,4.75-33.14-9.05-33.14h-6.28C230.14,301.73,222.1,311.79,222.1,319.54Z"/><path class="cls-1" d="M358.3,154v6.29c0,7.69,10.06,15.72,17.81,15.72,23.4,0,29.52-37.72-2.1-37.72C366.64,138.29,358.3,146.63,358.3,154Z"/><path class="cls-1" d="M84.86,63.91c0,6.22-.22,11.18,6.66,16.39,13.64,10.35,31.12-.62,30.69-15.23a18.91,18.91,0,0,0-17.8-18.56C94.8,45.72,84.86,53.71,84.86,63.91Z"/><path class="cls-1" d="M187.53,362.49c0,23.27,20.52,26.61,31.23,16.56,13.77-12.93,3.2-32.28-11.32-32.28C195.56,346.77,187.53,353.62,187.53,362.49Z"/><path class="cls-1" d="M301.73,145.62v6.29c0,7.05,8.66,15.71,15.71,15.71,6.05,0,12,0,17-6.07,12-14.47-1.13-31.64-13.84-31.64C312,129.91,301.73,137.43,301.73,145.62Z"/><path class="cls-1" d="M403.35,171.82c0,29.91,37.71,25.49,37.71,2.09,0-16-20-24.69-31.74-13.93C407,162.11,403.35,167.87,403.35,171.82Z"/><path class="cls-1" d="M343.63,201.15c0,23.91,32.48,23,32.48,1C376.11,179.74,343.63,183.33,343.63,201.15Z"/><path class="cls-1" d="M135.15,56.57c0,22.54,32.47,21.35,32.47,0C167.62,36.57,135.15,34.77,135.15,56.57Z"/><path class="cls-1" d="M142.48,104.77c0,21.44,32.48,21.79,32.48,0S142.48,84.41,142.48,104.77Z"/><path class="cls-1" d="M153,359.35c0-21.46-25.55-20.93-31-6.91C112.67,376.14,153,384.26,153,359.35Z"/><path class="cls-1" d="M287.06,193.82c0,7.72,6.11,16.76,13.62,16.76,9.07,0,18.86-2.22,18.86-15.72a15.41,15.41,0,0,0-4.38-11.34C303.88,171.54,287.06,182.62,287.06,193.82Z"/><path class="cls-1" d="M164.48,155.05c0,9.4,2.74,18.86,15.72,18.86,21,0,22.57-32.48-1-32.48C172.62,141.43,164.48,148.45,164.48,155.05Z"/><path class="cls-1" d="M158.2,327.92c0,18.77,32.47,24.44,32.47-2.1C190.67,307.87,158.2,306.63,158.2,327.92Z"/><path class="cls-1" d="M193.82,280.77c0,25.66,32.47,21.73,32.47,2.1,0-7-6.64-15.72-13.62-15.72C204.17,267.15,193.82,270,193.82,280.77Z"/><path class="cls-1" d="M404.4,235.72c11,0,16.76-5.78,16.76-16.76,0-14.56-18.1-19.81-27.35-10.58S389.94,235.72,404.4,235.72Z"/><path class="cls-1" d="M178.1,58.67c0,18.8,28.29,18.91,28.29,1C206.39,38.38,178.1,43,178.1,58.67Z"/><path class="cls-1" d="M323.73,235.72c0,22.43,27.24,17.63,27.24,4.19,0-7.67-1.56-16.76-13.62-16.76C330.74,223.15,323.73,229.32,323.73,235.72Z"/><path class="cls-1" d="M368.78,254.58c0,10.07,10.51,14.4,13.89,14.65,2.69.2-1.17.55,1.59-.29,19.19-5.82,16-28-2.91-28C374.45,241,368.78,247.55,368.78,254.58Z"/><path class="cls-1" d="M177.06,245.15c0,20.23,27.85,18.74,28.08,1.06C205.39,227.87,177.06,228.36,177.06,245.15Z"/><path class="cls-1" d="M207.44,159.24c0,4.64,1.62,7.34,4.38,10.29,12,12.86,32.37-5.34,20-19C222.17,139.79,207.44,149.19,207.44,159.24Z"/><path class="cls-1" d="M267.15,228.39c0,20.23,27.83,19,27.83,1.05,0-14.77-17-16.6-23.46-10.3C269.57,221.05,267.15,224.78,267.15,228.39Z"/><path class="cls-1" d="M104.77,319.54c0,11.39,4.32,15.71,15.71,15.71,12.93,0,19.49-27.24-4.19-27.24C111,308,104.77,314.21,104.77,319.54Z"/><path class="cls-1" d="M142.48,289.15c0,23.13,27.24,17.87,27.24,3.15C169.72,271.43,142.48,274.61,142.48,289.15Z"/><path class="cls-1" d="M186.48,104.77c0,23.55,27.24,17.31,27.24,4.19C213.72,85.06,186.48,92.15,186.48,104.77Z"/><path class="cls-1" d="M135.15,256.68c0,14.76,24.09,19.27,24.09-1.05C159.24,240.83,135.15,242.5,135.15,256.68Z"/><path class="cls-1" d="M170.77,210.58c0,3.8-.41,7.5,4.58,11.14,11.53,8.39,19.51-4.85,19.51-10.09C194.86,196.88,170.77,196.16,170.77,210.58Z"/><path class="cls-1" d="M97.43,287.06c0,14.73,24.1,19.26,24.1-1.05C121.53,271.41,97.43,272.87,97.43,287.06Z"/><path class="cls-1" d="M345.73,279.73c0,16,24.09,13.89,24.09,0C369.82,263.68,345.73,262,345.73,279.73Z"/><path class="cls-1" d="M222.1,115.24c0,19.61,24.1,15.3,24.1,2.1C246.2,100.12,222.1,101.83,222.1,115.24Z"/><path class="cls-1" d="M243.06,168.67c0,17.23,24.09,15.66,24.09,2.1C267.15,150.51,243.06,156.39,243.06,168.67Z"/><path class="cls-1" d="M225.25,80.67c18.4,0,15.9-24.1,1-24.1C210.44,56.57,211.2,80.67,225.25,80.67Z"/><path class="cls-1" d="M244.1,252.49c0,8.39,4.53,13.62,10.48,13.62,16.58,0,18.61-24.1,0-24.1C249.32,242,244.1,247.22,244.1,252.49Z"/><path class="cls-1" d="M300.68,259.82c0,20.32,23.05,14.64,23.05,5.24,0-5.59.7-8.92-3.36-12.36C312,245.58,300.68,251.82,300.68,259.82Z"/><path class="cls-1" d="M98.48,257.72c0,11.85,21,16.42,21-1C119.43,243.67,98.48,244.83,98.48,257.72Z"/><path class="cls-1" d="M136.2,226.29c0,10.51,11.52,14.66,18,8.53,4.64-4.43,5.09-17.95-7.48-17.95C141.34,216.87,136.2,221.39,136.2,226.29Z"/><path class="cls-1" d="M321.63,294.39c0,14.43,20.95,13,20.95,0S321.63,280,321.63,294.39Z"/><path class="cls-1" d="M249.34,131c0,11,21,17.68,21-2.1C270.3,118.82,249.34,117.06,249.34,131Z"/><path class="cls-1" d="M242,82.76c0,14.72,20.95,13.13,20.95,1C263,69.2,242,70.57,242,82.76Z"/><path class="cls-1" d="M276.58,276.58c0,10.29,6.42,10.48,11.53,10.48,9.95,0,16.09-19.91-4.19-19.91C280.58,267.15,276.58,272.49,276.58,276.58Z"/><path class="cls-1" d="M269.25,109c5.72,0,11.63-1.57,11.25-9.31-.53-10.59-16.61-11.58-18.22-.81C261.67,102.92,265.35,109,269.25,109Z"/><path class="cls-1" d="M105.81,230.48c0,18.65,17.81,11.21,17.81,3.15C123.62,219.89,105.81,223.24,105.81,230.48Z"/><path class="cls-1" d="M298.58,301.73c0,11.27,17.81,14.17,17.81,0C316.39,289.1,298.58,292.36,298.58,301.73Z"/></g></g></g></svg>