<svg xmlns="http://www.w3.org/2000/svg" viewBox="0 0 893.5 205.86" id="kaspersky"><defs><style>.cls-1{fill:#3e3f5d;fill-rule:evenodd;}</style></defs><title> 1120530688</title><g id="Слой_2" data-name="Слой 2"><g id="Слой_1-2" data-name="Слой 1"><g id="_1120530688" data-name=" 1120530688"><path class="cls-1" d="M95.34,154.15c2.92.69,15.93,9.26,19,10l26.09-46.48c1.63-3.15,3.45-6.36,5.24-9.46S149.2,102,151,98.81c1.2-2.17,4-8.06,5.54-9.16l20.78,37.08c1,1.6,1.58,3,2.55,4.57l18.41,32.81c2-.16,2.47-.87,4.89-2.22,2.78-1.56,11.81-7.21,14.08-7.74-.4-1.71-29.39-52.75-30.36-54.54-4.92-9.09-10.26-18-15.18-27L164,58.91c-1.55-2.55-6.27-12.13-8-13.37-1.27,1.9-2.67,4.57-3.79,6.64s-2.55,4.54-3.78,6.66c-12.68,22-25.27,45.72-38,67.78L97.21,150.34A11.59,11.59,0,0,0,95.34,154.15Z"/><path class="cls-1" d="M554.48,133.76c0,17.32-7,39.41-12.88,55.42-.75,2-2.28,5.06-2.77,7.19l19.92,8.54c.27-1.15,6.58-17.11,8.26-23,.81-2.84,1.6-5,2.44-8,4.57-16.06,6.38-26.05,6.38-43,0-23.8-22.77-38-22.77-62.61,0-13.5,5.47-34.26,10-46.41.81-2.19,1.72-4.42,2.6-6.89s2-4.43,2.55-6.94a33.8,33.8,0,0,1-4.74-1.91c-3-1.3-13.16-6-15.19-6.15L545.4,7.52a212.6,212.6,0,0,0-13.56,51.9l-.61,10.3C533.25,103.61,554.48,114.42,554.48,133.76Z"/><path class="cls-1" d="M214.87,69.73c0,21.28,8.76,32.12,17.4,47.57,5.28,9.44,5.36,11.47,5.36,21.68a86.69,86.69,0,0,1-2.1,16.39c-2.53,12.69-6.18,23.42-10.63,35.38-.66,1.77-2.31,5.4-2.44,7,4.37,1,16.11,7.75,19.92,8.07l5.75-15.6c5.8-17.47,11.32-36.51,11.32-55.55,0-27.16-22.76-41.12-22.76-62.61,0-20.5,6.08-40.62,13.81-59.23a18.07,18.07,0,0,0,1.36-3.38l-15-6.37c-1-.41-1.34-.63-2.26-1.06-1.09-.51-1.76-.66-2.69-1.11-1,2.17-2,5-3,7.45l-8,24.23C218.05,42.86,214.87,56.6,214.87,69.73Z"/><path class="cls-1" d="M694.29,64.86l57.63,57.87,57.63-57.39L794.13,49.69,751.92,92.14c-1.46-2.08-3.64-3.74-5.33-5.35-1-.92-1.52-1.53-2.65-2.57L709.58,49.8Z"/><path class="cls-1" d="M617.57,105.3l57.51,57.75,15.17-14.94c-1.45-2.13-17.88-18.12-21.1-21.35l-10.44-10.43c-2-2-9.79-9.07-10.31-11,1.45-2.17,4.26-4.57,6.42-6.38a2.75,2.75,0,0,0,.26-.22l3.39-3.24c4-4,28.35-27.88,29.77-30L673.42,50.39,661.34,61.8c-6.76,6-28.19,28.12-36.53,36.51C622.46,100.67,619.41,102.55,617.57,105.3Z"/><path class="cls-1" d="M24.31,105.89l56.44,56.69,15.18-15-41-41.27C56.8,103.6,85,76.41,91.12,69.78c1.32-1.43,2.8-2.55,3.74-4.32L80.05,50.39Z"/><path class="cls-1" d="M474.8,60.71l8.34,12.53,8.26,12.61c-1.32,2-3.84,4-5.62,6.24-2.71,3.39-9.33,8.84-12,12.19a29.38,29.38,0,0,1-6.1,6.24c2.07,3.91,30.16,42,35.57,49.8,1,1.46,1.33,2.3,2.85,3.32l17.07-12.33a41.89,41.89,0,0,0-3.24-4.82l-10.32-14.34c-1.22-1.77-2.23-2.91-3.42-4.65l-10.52-14.61c1.17-1.75,8.19-8.21,11.52-12.19,3.17-3.8,9.26-8.34,11.72-12-.47-2-4.87-8-6.17-10L499.74,59c-1.27-1.92-6-8.59-6.45-10.15C491.29,49.32,477.53,58.88,474.8,60.71Z"/><path class="cls-1" d="M0,53.6v97.71c0,3.43.47,4.75.47,8.06l12.27.07c12,1.35,9.55,2,9.55-13.35,0-5.72-.47-9.67-.47-15.18V60.71c0-3.32-.48-4.51-.48-7.59H9C5.29,53.12,3.62,53.6,0,53.6Z"/><path class="cls-1" d="M437.32,159.37h20.4c1.09,0,1.42-.33,1.42-1.42V54.55c0-1.1-.33-1.43-1.42-1.43h-20.4Z"/><polygon class="cls-1" points="278.43 159.37 299.77 159.37 299.77 53.13 278.43 53.13 278.43 159.37"/><polygon class="cls-1" points="593.37 159.37 614.72 159.37 614.72 53.13 593.37 53.13 593.37 159.37"/><path class="cls-1" d="M310.21,59.77c.45,1.68,3.08,5.1,4.17,6.73,1.86,2.79,12.45,18.12,12.9,19.83-1.26,1.88-3.26,3.28-4.74,5.21a51.22,51.22,0,0,1-5.11,5.34l-5,5.46c-1.71,1.7-4,3.31-4.63,5.8,3.37,2.26,4.8,4.53,7.73,7a45.35,45.35,0,0,1,4,3.58,26.44,26.44,0,0,0,3.92,3.67c1.08-1.61,20.43-21.51,23.44-25.41,2.55-3.3,5.4-5,7.86-8.74C345.91,75,337.11,61.64,328.23,48.38,325.64,49,314.49,57.5,310.21,59.77Z"/><path class="cls-1" d="M859,67.83c0-15.62,25.62-14.07,25.62-1.42v2.37c0,5.18-5.38,10-10.44,10-4.88,0-7.87.33-11.73-3A9.87,9.87,0,0,1,859,67.83Zm-3.32,10.43h-31.3v9.49c9.86,0,18.1.47,28,.47H892.2v-10h-3.8c1.75-2.6,3.82-3.53,4.83-9.4,2.13-12.27-9.12-22.38-21-22.38C851.16,46.48,844.11,68.22,855.67,78.26Z"/><path class="cls-1" d="M366.65,74h50.28V53.6c0-1.09-.33-1.42-1.43-1.42H366.65Z"/><path class="cls-1" d="M366.65,158.42H415.5c1.1,0,1.43-.33,1.43-1.42V138c0-1.1-.33-1.43-1.43-1.43H366.65Z"/><path class="cls-1" d="M859,120c0-16.85,25.62-14.2,25.62-1.89,0,3.91-.21,6.77-3.71,9.57C874,133.18,859,130.53,859,120Zm-7.59-11.38h4.27c-1.8,2.69-4.32,3.36-5.22,9.51-3.35,22.9,29.21,31,40.61,12.12a17.48,17.48,0,0,0-3.13-21.63h4.27V99.13H851.4Z"/><path class="cls-1" d="M752.27,162.22c13.11,0,19-16.71,9.84-25-9.3-8.43-24.29-2.1-24.3,10.3A14.58,14.58,0,0,0,752.27,162.22Z"/><path class="cls-1" d="M141.82,138.5c0,4.48.35,8.76,4.4,12.21,10,8.5,24.06,1.95,24.06-11.26,0-7.74-6.85-13.75-14.7-13.75C148.91,125.7,141.82,131.89,141.82,138.5Z"/><path class="cls-1" d="M378,102.45v2.85c0,6.93,6.35,13.28,13.28,13.28,4.64,0,7.91-.72,11.28-4.37A14.28,14.28,0,0,0,402.12,94C393.49,85.5,378,92,378,102.45Z"/><polygon class="cls-1" points="824.37 159.37 892.2 159.37 892.2 149.88 824.37 149.88 824.37 159.37"/></g></g></g></svg>