<svg xmlns="http://www.w3.org/2000/svg" viewBox="0 0 622.74 316.76" id="rbk"><defs><style>.cls-1{fill:#3e3f5d;fill-rule:evenodd;}</style></defs><title> 1120536800</title><g id="Слой_2" data-name="Слой 2"><g id="Слой_1-2" data-name="Слой 1"><g id="_1120536800" data-name=" 1120536800"><path class="cls-1" d="M374.21,91.43c23.85-2.24,48.57-2.51,48.87,22.79.31,26.23-27.39,25.48-49.38,23Zm-37.24,74,55.7.82c40.64,0,71.53-15.8,65.38-60.77-6.71-49.11-63.84-38.62-84.33-41.69L374,30.53l70-.91V1.81L337,1.08Z"/><path class="cls-1" d="M477.14,157.64l.1,8.59,36.54-.13.11-72.16a19.35,19.35,0,0,1,3.91,3.52L570,166.23h42.86c-6.72-12.51-23.1-31.6-33-43.7L546.69,79.39c2.51-5.38-.16-.44,3.42-5.48,13.16-18.55,43.79-50.72,59.18-72.34-46-4.67-38.61-.39-65.73,33.11-6.11,7.55-21.51,29.79-29,35.39l-.79-68.6L477.11,1Z"/><path class="cls-1" d="M15.81,166.27H166.38l.06-150.61c-11.15,5.76-63,61-76.29,74.28C76.7,103.39,21.78,154.89,15.81,166.27Z"/><path class="cls-1" d="M1.35,151.87C12.75,145.6,64,91,77.6,77.39S145.77,12.47,152,1.22L1.41,1.19Z"/><path class="cls-1" d="M235.75,29.67c25.08,0,47-2.94,46.17,25.77-.78,27.15-22.66,25-46.6,25ZM198.39,166.83l37-.26c0-15.54-2.39-47.42,1.5-60,23.74,0,44.68,1.11,62.45-11.74,14.49-10.47,23.53-32.14,16.21-57.94C303-7.31,247.11,1.19,198.48,1.19Z"/><path class="cls-1" d="M191.05,315h14.77l62.17-96,.76,95.64,14.27.14,0-116.85-13.8-.36L221.83,270c-5.11,7.93-10.42,17.66-16.39,23.93l-.18-96.35-13.17-.06C188.85,208.35,191.05,296.34,191.05,315Z"/><path class="cls-1" d="M556.05,208.81c59.6-14,70.26,83,20,94.54C516.72,317,501,221.77,556.05,208.81Zm-4.48-10.62c-35.78,9.65-49,41.54-42.38,72.46,6.13,28.57,34.58,53.46,70.45,44.11,28.61-7.47,48.65-35.68,41.73-72C615.76,213.37,588.26,188.29,551.57,198.19Z"/><polygon class="cls-1" points="309.23 314.95 323.52 314.88 323.56 209.51 383.11 209.51 383.64 314.8 397.91 314.95 397.9 197.54 309.22 197.54 309.23 314.95"/><path class="cls-1" d="M.73,315l14.28,0,.07-56.34C32.29,276.89,51.37,295.16,66.69,315l17.25-.12c-7.64-10.69-49.06-51.68-53.79-61.89l26.11-27.28c6.89-8.38,19.95-19.83,24.53-28.3-23.23,0-16,3.65-36.5,24L22.71,245.87c-2.57,3-4.84,4.53-7.17,7.2l-.67-55.5-13.1,0C-1.47,208.35.73,296.34.73,315Z"/><path class="cls-1" d="M111.7,209h15.45c18.88,0,30.29,3.42,30.31,23,0,19.2-12,23.77-30.31,23.77H111.7ZM97.43,315l14.28-.07V267.16c26.44,0,58.85,1.84,59.92-33.54,1.27-41.59-42.45-36.08-74.22-36.08Z"/><polygon class="cls-1" points="414.18 209.01 448.29 209.21 448.48 314.41 462.78 314.83 462.79 209.19 496.93 209.16 496.59 197.57 415 197.53 414.18 209.01"/></g></g></g></svg>