<svg xmlns="http://www.w3.org/2000/svg" viewBox="0 0 605.76 553.85" id="stripes"><defs><style>.cls-1{fill:#3e3f5d;fill-rule:evenodd;}</style></defs><title> 1120517824</title><g id="Слой_2" data-name="Слой 2"><g id="Слой_1-2" data-name="Слой 1"><g id="_1120517824" data-name=" 1120517824"><path class="cls-1" d="M206.59,187.15l48.77,38.35c13.95,10.87,8.57,14.21,41.92-4.91,4.1-2.35,10.74-5.24,13.47-9-3.15-4.36-18.78-15.22-24.19-19.47-42.86-33.6-33-31.55-51.36-21C230.23,174,208.89,184.4,206.59,187.15Z"/><path class="cls-1" d="M150.71,210.53c2.55,4.36,41.5,33.29,48.8,38.92,15.75,12.14,10.22,10.48,28.82,3.17,6.93-2.72,26.56-10,31-13.4-1.88-2.87-41.9-33.28-48.45-38.35-17.93-13.9-8.6-11.52-52.08,5.5l-6,2.6A9.91,9.91,0,0,0,150.71,210.53Z"/><path class="cls-1" d="M348.93,228.6c.21.28.5,1.23.64,1.47,2,3.39,42,33.77,47.33,37.68,2.29,1.69,10.78,9,12.9,9.33,5.16.89,36.58-26.8,36.6-27.23.09-2.26-41.92-33.36-45.94-36.67-17.09-14.09-15-13.42-20.36-8.67a47.53,47.53,0,0,1-4.17,3.3Z"/><path class="cls-1" d="M257.21,158.46c3,4.52,59.77,47.32,62,48.19,6.71-3.07,32-22.44,36.06-28-3.36-3.92-38.71-30.82-45.61-36.15-4.73-3.65-10.54-8.68-15.95-12-3.83,1.35-14.45,11.09-18.17,14.06S259.61,155.14,257.21,158.46Z"/><path class="cls-1" d="M91.54,434.76C102.78,445,124.2,461,137.87,471.52c4.72,3.64,10.79,8.88,15.52,11.65l18.22-42c-2.39-3.63-55.2-43.7-61.8-48.52C105.38,397.1,92.61,425.92,91.54,434.76Z"/><path class="cls-1" d="M427.28,155.27a11.74,11.74,0,0,0,1.55,1.87l5.18,4.45c5.68,4.66,51,40.33,55.18,41.82,4.42-2.63,24-31.95,25.36-36.65C498.33,154.62,467.32,129,452,118.62Z"/><path class="cls-1" d="M145.4,342.3c10.29,8.17,20.77,16.69,30.75,24,5.42,4,10.61,8.13,15.57,12.05,4.34,3.42,11.43,9.43,15.86,11.74,4.24-3,11.56-11.39,16.27-15.56,3.68-3.26,15-11.11,16.94-14.16-1.58-3.41-4.44-4.71-7.29-6.8-9.32-6.86-51.6-41.92-54.61-41.74C176.53,312,148.27,335.78,145.4,342.3Z"/><path class="cls-1" d="M278.69,377.37c8.64,8.6,13.95,12,24.63,20.08,44.91,34.14,31.31,31.1,52.08,20.39,5.68-2.93,25.9-10.51,29.54-13.9-14.35-13-34.83-26.8-49.41-38.7-13.71-11.19-10.5-11.07-28.36-3.05C299.46,365.66,283.52,372.71,278.69,377.37Z"/><path class="cls-1" d="M439.38,299.85c1.84,2.71,58.27,47.09,62.56,48.66,5.8-3,33.62-23.38,36-28.61-16.69-11.66-45.53-36.94-61.54-47.63Z"/><path class="cls-1" d="M236.64,412.44c1.68,2.3,57.73,46.5,62.33,48.61,12.12-10.87,18.36-19.14,33.87-29.48-2-3.42-38.84-31.15-46.62-37.2-3.26-2.53-12-9.92-15.94-11.53C262.47,387.05,244.16,403.2,236.64,412.44Z"/><path class="cls-1" d="M48.18,277.53c-4.74,4.48-24,29.5-25.59,37.24,7.3,4.46,50.85,39.79,61.72,47.47l26.23-35.91C109,324,52.43,279.5,48.18,277.53Z"/><path class="cls-1" d="M332.73,351.71c2.57,4.67,7.59,7,12.11,10.61l37.68,29.28c15.59,12,9.79,10.12,28.88,2.61,7.24-2.84,27.09-9.8,30.64-13.65l-49.34-38.5c-3.74-2.79-9.28-8.81-13-9.07Z"/><path class="cls-1" d="M95.94,236c6,6,39.8,31.36,49.41,38.85,15.49,12.07,9.41,10.55,27.05,1.46,9-4.65,22.41-9.24,29.68-13.74-1.82-3.6-8.26-7.41-11.88-10.27-5.06-4-7.74-5.92-12.55-9.74-41.4-32.84-33.35-30.72-53.53-22L96.46,235.46C96.38,235.28,96.11,235.84,95.94,236Z"/><path class="cls-1" d="M518.55,226.47c2.66,3.95,60.12,47.38,62,48.08,4.65-3.76,22.64-30.55,25.18-36.39-2.34-3.21-25.73-20.42-30.64-24.29s-27.51-22.43-31.73-23.93Z"/><path class="cls-1" d="M14.91,327.12C10.29,336.45.94,356,0,365c5.38,2.92,10.41,7.66,15.79,11.78s10.15,7.73,15.6,12c4.84,3.82,27.81,22.42,31.36,23.39,2.41-7.5,5.16-14.64,8.18-21.71,2.58-6,8.07-15.35,9.39-20.59-4.06-4-10.53-8.73-15.42-12.46-5.47-4.17-10.12-7.79-15.53-12.11L18.42,321.89Z"/><path class="cls-1" d="M391.58,194.59c1.14,3.48-1,.26,2.56,3.67l12.11,9.16c6.5,4.58,44.77,35.91,46.81,35.91,2.93,0,29.83-29.4,30-31.74-.79-2.43-.61-1.77-2.11-3.4L423.4,163.54c-4.36-1.7-2.21-.7-10.72,8.74Z"/><path class="cls-1" d="M512.63,233.22C508,238.82,503,244.74,497.9,250c-3.49,3.62-4.83,5.15-7.81,8.15-4.34,4.38-6,4.37-7.52,9l61.88,47.18c3.89-2.17,27.3-25.78,30.18-32.63C573,279.18,516.49,235.05,512.63,233.22Z"/><path class="cls-1" d="M365.6,40.5l46,36.14c4.5,3.55,10.87,9.08,15.93,11.78,4.09-3.83,18.82-33.13,21-40.38-9.13-6.27-56.21-45.23-62.75-48-3.24,6.37-6.2,13.11-9.7,19.86C373.1,25.59,367,35.15,365.6,40.5Z"/><path class="cls-1" d="M242.84,350.62c2.37,1.87,4.21,3.65,7.17,3.52l29.35-14.38c5.39-2.36,12.8-4.09,14-7-.08-.15-58.49-46.83-61.33-47.25-3.11-.47-42.08,15.7-44.53,21.74Z"/><path class="cls-1" d="M54.32,271.1c2.69,3.17,56.86,45.6,61.87,48.12,3.65-2.4,5.75-5.32,8.36-7.88l25.56-22.17L88.56,241.08C80.92,243.42,56.76,266.07,54.32,271.1Z"/><path class="cls-1" d="M480.94,62.91l62.45,48.2c2.62-3.77,16.42-37,16.11-44-1.72-2.33-58.52-46.22-61.63-47.66-2.9,5.5-5.48,14.62-8.23,21.51C487.11,47.25,482.35,57.15,480.94,62.91Z"/><path class="cls-1" d="M438.46,367.53c15.1,11.57,9.84,11.39,27.39,2.5,6.82-3.45,20.94-10.61,27.53-16-1.43-3.76-10.62-9.49-14.84-12.76l-46.73-36c-2.37.83-41.92,22.68-42.51,23.21Z"/><path class="cls-1" d="M300,124.45l30.26,24c5.14,4.06,11,8.42,15.6,12,3.66,2.88,11.5,9.69,15.84,11.94,4.79-2.35,28.22-27,30.75-33-10.4-7.7-20.06-15.43-31.09-24.18-4.26-3.37-27.61-22.11-31.54-23.46Z"/><path class="cls-1" d="M336,85.13c4.75,4.52,10.64,8.6,14.83,12l47,35.78c3.84-2.93,23.77-31.45,25.43-37.39-10.33-6-56-45.2-62.62-47.36Z"/><path class="cls-1" d="M312,268.87l.66.4,6.67,6c2.62,1.78.56.1,3,2.26l3.43,3c1.38,1,1.78,1,3.25,2l24.29,19.26c2.36,1.77,4.29,3.5,7.28,3.46,5-.05,28.5-14.51,35.19-18.07.56-.3,2.82-1.46,3.42-1.86l2.4-1.95c.09-.35.38-.38.56-.57L356,246a81.54,81.54,0,0,1-7.73-6.13c-1.9-1.62,2,1.5-1.13-1-7.09-5.68-8.14-4.13-12.55-1.34L319,246.44c-4.95,2.82-19.43,8.46-20.77,11.91Z"/><path class="cls-1" d="M290.42,320.05c14.81,12.3,12,10.05,29.81,3.15l22.59-9.26c3.29-1.18,4.91-1.09,6.48-4.58-1.48-2.63-20.32-17-24.06-19.89-44-33.57-31.27-29.55-53.3-21L245.4,279.18c-2.42,1.35-1.8.36-3,2.55Z"/><path class="cls-1" d="M519,158.75c4.2-2.89,19.48-35.22,20.84-39.61L477.5,71.22c-3.1,3.81-10.88,21.06-14.21,27.34-9.61,18.18-11.26,8.12,30.8,42.26C498.48,144.39,514.71,157.87,519,158.75Z"/><path class="cls-1" d="M175.7,433l26.14-36.34c-3-2.72-56.81-45.41-62.27-48-5,3.78-23.25,29.33-25.63,36.22Z"/><path class="cls-1" d="M244.78,553.85c3.1-4.67,6.24-15.9,8.93-22,3.06-6.93,8.25-14.88,9.34-20.84-13.12-8-54.73-44.37-62.75-47.51C195.62,474.31,184.5,493,182.85,506Z"/><path class="cls-1" d="M267.09,504l12.63-18.38c4-5.76,10.24-12.34,13.26-17.93l-62-48.23c-2.85,1.9-2.14,1.7-4.43,4.51-1.61,2-2,2.38-3.3,4.12-4.55,6.07-16.41,22.21-17.84,27.91Z"/></g></g></g></svg>